<svg xmlns="http://www.w3.org/2000/svg" viewBox="0 0 520 340">
  <g fill="#111">
    <circle cx="26" cy="42" r="1.1" opacity=".18"/><circle cx="39" cy="64" r="2.2" opacity=".12"/><circle cx="53" cy="29" r=".8" opacity=".26"/>
    <circle cx="55" cy="86" r="1.4" opacity=".22"/><circle cx="67" cy="51" r="3.4" opacity=".1"/><circle cx="72" cy="73" r="1" opacity=".3"/>
    <circle cx="77" cy="94" r="2.6" opacity=".14"/><circle cx="83" cy="36" r="1.7" opacity=".2"/><circle cx="89" cy="59" r=".7" opacity=".34"/>
    <circle cx="91" cy="82" r="4.8" opacity=".06"/><circle cx="98" cy="46" r="1.2" opacity=".27"/><circle cx="103" cy="69" r="2" opacity=".15"/>
    <circle cx="105" cy="102" r=".9" opacity=".31"/><circle cx="111" cy="31" r="3" opacity=".08"/><circle cx="116" cy="55" r="1.1" opacity=".25"/>
    <circle cx="119" cy="88" r="1.8" opacity=".17"/><circle cx="126" cy="43" r=".7" opacity=".32"/><circle cx="129" cy="72" r="3.8" opacity=".09"/>
    <circle cx="134" cy="96" r="1.2" opacity=".23"/><circle cx="142" cy="61" r="2.4" opacity=".12"/><circle cx="148" cy="81" r=".8" opacity=".3"/>
    <circle cx="155" cy="48" r="1.6" opacity=".18"/><circle cx="161" cy="107" r="1" opacity=".24"/><circle cx="170" cy="70" r="5.8" opacity=".045"/>
    <circle cx="42" cy="118" r=".8" opacity=".25"/><circle cx="64" cy="132" r="1.9" opacity=".13"/><circle cx="92" cy="126" r="1.2" opacity=".21"/>
    <circle cx="121" cy="139" r=".7" opacity=".29"/><circle cx="149" cy="124" r="2.7" opacity=".09"/><circle cx="181" cy="111" r="1.1" opacity=".2"/>

    <circle cx="191" cy="184" r=".8" opacity=".24"/><circle cx="204" cy="211" r="1.6" opacity=".18"/><circle cx="218" cy="194" r="3.3" opacity=".08"/>
    <circle cx="223" cy="231" r="1.1" opacity=".27"/><circle cx="232" cy="207" r="2.2" opacity=".12"/><circle cx="239" cy="245" r=".7" opacity=".33"/>
    <circle cx="245" cy="185" r="1.4" opacity=".2"/><circle cx="251" cy="219" r="4.4" opacity=".06"/><circle cx="257" cy="259" r="1" opacity=".29"/>
    <circle cx="263" cy="198" r="2.7" opacity=".11"/><circle cx="269" cy="236" r="1.3" opacity=".25"/><circle cx="276" cy="214" r=".8" opacity=".34"/>
    <circle cx="281" cy="250" r="3.6" opacity=".075"/><circle cx="288" cy="190" r="1.2" opacity=".26"/><circle cx="294" cy="226" r="2" opacity=".15"/>
    <circle cx="301" cy="262" r=".7" opacity=".31"/><circle cx="307" cy="204" r="1.7" opacity=".19"/><circle cx="314" cy="239" r="5.2" opacity=".05"/>
    <circle cx="320" cy="184" r=".9" opacity=".28"/><circle cx="326" cy="220" r="2.5" opacity=".1"/><circle cx="334" cy="252" r="1.2" opacity=".22"/>
    <circle cx="341" cy="199" r=".8" opacity=".3"/><circle cx="349" cy="232" r="1.9" opacity=".14"/><circle cx="358" cy="271" r="3.1" opacity=".07"/>
    <circle cx="207" cy="276" r="1" opacity=".21"/><circle cx="230" cy="294" r="2.4" opacity=".09"/><circle cx="267" cy="286" r=".8" opacity=".27"/>
    <circle cx="300" cy="303" r="1.5" opacity=".16"/><circle cx="332" cy="289" r=".9" opacity=".24"/><circle cx="370" cy="250" r="1.1" opacity=".19"/>

    <circle cx="376" cy="45" r="1" opacity=".23"/><circle cx="391" cy="72" r="2.5" opacity=".1"/><circle cx="402" cy="38" r=".7" opacity=".31"/>
    <circle cx="408" cy="91" r="1.8" opacity=".16"/><circle cx="416" cy="58" r="4.1" opacity=".06"/><circle cx="423" cy="112" r=".9" opacity=".29"/>
    <circle cx="431" cy="47" r="1.4" opacity=".21"/><circle cx="438" cy="80" r="2.8" opacity=".09"/><circle cx="445" cy="29" r=".8" opacity=".34"/>
    <circle cx="451" cy="101" r="1.2" opacity=".25"/><circle cx="459" cy="63" r="2" opacity=".13"/><circle cx="466" cy="122" r=".7" opacity=".32"/>
    <circle cx="472" cy="42" r="1.6" opacity=".18"/><circle cx="479" cy="88" r="5.5" opacity=".045"/><circle cx="486" cy="66" r="1" opacity=".27"/>
    <circle cx="494" cy="107" r="2.3" opacity=".11"/><circle cx="502" cy="51" r=".8" opacity=".3"/>

    <circle cx="18" cy="241" r=".8" opacity=".2"/><circle cx="71" cy="286" r="1.4" opacity=".13"/><circle cx="133" cy="237" r=".7" opacity=".25"/>
    <circle cx="177" cy="313" r="2.2" opacity=".07"/><circle cx="386" cy="157" r="1" opacity=".18"/><circle cx="436" cy="193" r=".8" opacity=".24"/>
    <circle cx="482" cy="246" r="1.7" opacity=".1"/><circle cx="506" cy="305" r=".7" opacity=".22"/>
    <circle cx="112" cy="176" r="8" opacity=".025"/><circle cx="386" cy="276" r="10" opacity=".02"/><circle cx="468" cy="155" r="6.5" opacity=".03"/>
  </g>
</svg>
